<svg width="17" height="16" viewBox="0 0 17 16" fill="none" xmlns="http://www.w3.org/2000/svg">
<g clip-path="url(#clip0)">
<path d="M5.52698 5.29293C4.80741 5.97979 4.3418 6.94949 4.3418 8C4.3418 9.0505 4.78624 10.0202 5.52698 10.7071C6.24656 11.3939 7.26243 11.8384 8.36296 11.8384C9.46349 11.8384 10.4794 11.3939 11.1989 10.7071C11.9185 10.0202 12.3841 9.0505 12.3841 8C12.3841 6.94949 11.9397 5.97979 11.1989 5.29293C10.4794 4.60606 9.46349 4.16161 8.36296 4.16161C7.26243 4.16161 6.24656 4.58586 5.52698 5.29293ZM10.437 6.0202C10.9661 6.52525 11.2836 7.23232 11.2836 8C11.2836 8.76767 10.9661 9.47474 10.437 9.97979C9.90793 10.4848 9.16719 10.7879 8.36296 10.7879C7.55873 10.7879 6.81799 10.4848 6.28889 9.97979C5.75979 9.47474 5.44233 8.76767 5.44233 8C5.44233 7.23232 5.75979 6.52525 6.28889 6.0202C6.81799 5.51515 7.55873 5.21212 8.36296 5.21212C9.16719 5.21212 9.90793 5.51515 10.437 6.0202Z" fill="#131313"/>
<path d="M7.81348 0.88843L7.81348 2.44399C7.81348 2.72681 8.06744 2.96924 8.36374 2.96924C8.66004 2.96924 8.91401 2.72681 8.91401 2.44399L8.91401 0.88843C8.91401 0.605602 8.66004 0.363178 8.36374 0.363178C8.06744 0.363178 7.81348 0.605602 7.81348 0.88843Z" fill="#131313"/>
<path d="M13.6328 7.99965C13.6328 8.28248 13.8868 8.5249 14.1831 8.5249L15.8127 8.5249C16.109 8.5249 16.363 8.28248 16.363 7.99965C16.363 7.71682 16.109 7.4744 15.8127 7.4744L14.1831 7.4744C13.8868 7.4744 13.6328 7.71682 13.6328 7.99965Z" fill="#131313"/>
<path d="M13.2524 2.6058L12.0884 3.71692C11.8768 3.89873 11.8768 4.24217 12.0884 4.44419C12.3001 4.64621 12.6387 4.64621 12.8503 4.44419L14.0143 3.33308C14.226 3.13106 14.226 2.80782 14.0143 2.6058C13.8027 2.40378 13.4641 2.40378 13.2524 2.6058Z" fill="#131313"/>
<path d="M0.363281 7.99965C0.363281 8.28248 0.617249 8.5249 0.913545 8.5249L2.54317 8.5249C2.83947 8.5249 3.09344 8.28248 3.09344 7.99965C3.09344 7.71682 2.83947 7.4744 2.54317 7.4744L0.913545 7.4744C0.617249 7.4744 0.363281 7.71682 0.363281 7.99965Z" fill="#131313"/>
<path d="M2.71244 2.58579C2.5008 2.78781 2.5008 3.11104 2.71244 3.31306L3.87646 4.42417C4.0881 4.62619 4.42673 4.62619 4.63837 4.42417C4.85001 4.24235 4.85001 3.89892 4.63837 3.6969L3.47435 2.58579C3.26271 2.38377 2.92408 2.38377 2.71244 2.58579Z" fill="#131313"/>
<path d="M7.81348 13.5554L7.81348 15.111C7.81348 15.3938 8.06744 15.6362 8.36374 15.6362C8.66004 15.6362 8.91401 15.414 8.91401 15.111L8.91401 13.5554C8.91401 13.2726 8.66004 13.0302 8.36374 13.0302C8.06744 13.0302 7.81348 13.2726 7.81348 13.5554Z" fill="#131313"/>
<path d="M12.0884 11.5755C11.8768 11.7573 11.8768 12.1008 12.0884 12.3028L13.2524 13.4139C13.4641 13.6159 13.8027 13.6159 14.0143 13.4139C14.226 13.2119 14.226 12.8887 14.0143 12.6866L12.8503 11.5755C12.6387 11.3735 12.3001 11.3735 12.0884 11.5755Z" fill="#131313"/>
<path d="M3.87646 11.5755L2.71244 12.6866C2.5008 12.8887 2.5008 13.2119 2.71244 13.4139C2.92408 13.6159 3.26271 13.6159 3.47435 13.4139L4.63837 12.3028C4.85001 12.1008 4.85001 11.7776 4.63837 11.5755C4.42673 11.3735 4.0881 11.3735 3.87646 11.5755Z" fill="#131313"/>
</g>
<defs>
<clipPath id="clip0">
<rect width="15.2727" height="16" fill="white" transform="translate(0.363281 15.6362) rotate(-90)"/>
</clipPath>
</defs>
</svg>
