<svg width="266" height="100" viewBox="0 0 266 100" fill="none" xmlns="http://www.w3.org/2000/svg">
<path d="M4.14923 63.2001V18.4641H19.4042V50.7201H41.7098V63.2001H4.14923ZM46.8384 63.2001V18.4641H85.104V30.4321H62.0934V35.2961H80.5531V45.9841H62.0934V51.2321H85.8731V63.2001H46.8384ZM196.468 63.2001L194.289 56.2241H177.047L174.868 63.2001H159.485L176.47 18.4641H195.571L212.556 63.2001H196.468ZM180.829 44.3201H190.507L185.636 28.9601L180.829 44.3201ZM216.844 63.2001V18.4641H237.676C246.179 18.4641 252.781 20.3201 257.482 24.0321C262.225 27.7441 264.596 33.2055 264.596 40.4161C264.596 48.5655 262.203 54.3895 257.417 57.8881C252.631 61.4295 245.901 63.2001 237.227 63.2001H216.844ZM231.971 51.6161H238.573C245.324 51.6161 248.7 47.7335 248.7 39.9681C248.7 33.3547 245.431 30.0481 238.894 30.0481H231.971V51.6161Z" fill="white"/>
<path d="M25.9307 84.8L22.2131 96H20.0018L17.2296 87.712L14.4094 96H12.182L8.46442 84.8H10.6277L13.4159 93.312L16.3162 84.8H18.2391L21.0754 93.36L23.9437 84.8H25.9307ZM54.3078 94.256V96H45.8952V84.8H54.0835V86.544H47.9783V89.456H53.3945V91.168H47.9783V94.256H54.3078ZM82.2845 90.224C83.0216 90.384 83.5881 90.704 83.9831 91.184C84.3893 91.6536 84.592 92.2616 84.592 93.008C84.592 93.968 84.2347 94.7096 83.5184 95.232C82.8133 95.744 81.767 96 80.3777 96H75.2181V84.8H80.0574C81.3071 84.8 82.2741 85.0505 82.9576 85.5521C83.6522 86.0537 83.9991 86.7624 83.9991 87.68C83.9991 88.2984 83.8445 88.8264 83.5344 89.264C83.2356 89.6904 82.8189 90.0104 82.2845 90.224ZM76.4039 85.776V89.84H79.9772C80.8856 89.84 81.5851 89.6697 82.0762 89.3281C82.5682 88.9761 82.8133 88.4696 82.8133 87.808C82.8133 87.1464 82.5682 86.6456 82.0762 86.304C81.5851 85.952 80.8856 85.776 79.9772 85.776H76.4039ZM80.3616 95.024C81.3664 95.024 82.1243 94.8536 82.6371 94.512C83.1498 94.1704 83.4062 93.6376 83.4062 92.912C83.4062 91.5144 82.3919 90.816 80.3616 90.816H76.4039V95.024H80.3616Z" fill="#FB1B3D"/>
<path d="M108.659 96.0961C107.825 96.0961 107.024 95.9625 106.255 95.6961C105.497 95.4297 104.909 95.0777 104.492 94.6401L104.957 93.7281C105.363 94.1337 105.902 94.4641 106.575 94.7201C107.248 94.9657 107.943 95.0881 108.659 95.0881C109.663 95.0881 110.416 94.9065 110.918 94.5441C111.42 94.1705 111.671 93.6905 111.671 93.1041C111.671 92.6561 111.532 92.2985 111.254 92.0321C110.988 91.7657 110.657 91.5625 110.261 91.4241C109.866 91.2745 109.316 91.1145 108.611 90.9441C107.767 90.7305 107.094 90.5281 106.591 90.3361C106.09 90.1337 105.657 89.8297 105.294 89.4241C104.941 89.0185 104.765 88.4697 104.765 87.7761C104.765 87.2105 104.915 86.6985 105.213 86.2401C105.513 85.7705 105.972 85.3977 106.591 85.1201C107.212 84.8425 107.981 84.7041 108.899 84.7041C109.54 84.7041 110.165 84.7945 110.774 84.9761C111.394 85.1465 111.927 85.3865 112.376 85.6961L111.976 86.6401C111.506 86.3305 111.004 86.1017 110.469 85.9521C109.936 85.7921 109.412 85.7121 108.899 85.7121C107.917 85.7121 107.174 85.9041 106.672 86.2881C106.18 86.6617 105.934 87.1465 105.934 87.7441C105.934 88.1921 106.068 88.5545 106.335 88.8321C106.613 89.0985 106.955 89.3065 107.361 89.4561C107.777 89.5945 108.333 89.7497 109.027 89.9201C109.85 90.1225 110.513 90.3257 111.014 90.5281C111.527 90.7201 111.96 91.0185 112.312 91.4241C112.665 91.8185 112.841 92.3577 112.841 93.0401C112.841 93.6057 112.686 94.1225 112.376 94.5921C112.077 95.0505 111.613 95.4185 110.982 95.6961C110.352 95.9625 109.578 96.0961 108.659 96.0961ZM135.715 85.8241H131.773V84.8001H140.843V85.8241H136.901V96.0001H135.715V85.8241ZM165.305 96.0961C163.851 96.0961 162.719 95.6801 161.907 94.8481C161.095 94.0161 160.69 92.8057 160.69 91.2161V84.8001H161.875V91.1681C161.875 92.4697 162.169 93.4401 162.757 94.0801C163.344 94.7201 164.193 95.0401 165.305 95.0401C166.426 95.0401 167.28 94.7201 167.868 94.0801C168.456 93.4401 168.75 92.4697 168.75 91.1681V84.8001H169.903V91.2161C169.903 92.8057 169.497 94.0161 168.686 94.8481C167.884 95.6801 166.757 96.0961 165.305 96.0961ZM191.744 84.8001H196.31C197.496 84.8001 198.543 85.0401 199.451 85.5201C200.36 85.9897 201.065 86.6505 201.566 87.5041C202.069 88.3465 202.319 89.3121 202.319 90.4001C202.319 91.4881 202.069 92.4585 201.566 93.3121C201.065 94.1545 200.36 94.8161 199.451 95.2961C198.543 95.7657 197.496 96.0001 196.31 96.0001H191.744V84.8001ZM196.246 94.9761C197.229 94.9761 198.089 94.7841 198.826 94.4001C199.563 94.0057 200.135 93.4665 200.541 92.7841C200.947 92.0905 201.15 91.2961 201.15 90.4001C201.15 89.5041 200.947 88.7145 200.541 88.0321C200.135 87.3385 199.563 86.8001 198.826 86.4161C198.089 86.0217 197.229 85.8241 196.246 85.8241H192.929V94.9761H196.246ZM223.25 84.8001H224.436V96.0001H223.25V84.8001ZM251.256 96.0961C250.145 96.0961 249.135 95.8505 248.228 95.3601C247.33 94.8585 246.625 94.1761 246.112 93.3121C245.61 92.4481 245.359 91.4777 245.359 90.4001C245.359 89.3225 245.61 88.3521 246.112 87.4881C246.625 86.6241 247.33 85.9465 248.228 85.4561C249.135 84.9545 250.145 84.7041 251.256 84.7041C252.367 84.7041 253.366 84.9497 254.253 85.4401C255.15 85.9305 255.855 86.6137 256.368 87.4881C256.881 88.3521 257.137 89.3225 257.137 90.4001C257.137 91.4777 256.881 92.4537 256.368 93.3281C255.855 94.1921 255.15 94.8697 254.253 95.3601C253.366 95.8505 252.367 96.0961 251.256 96.0961ZM251.256 95.0401C252.143 95.0401 252.944 94.8425 253.66 94.4481C254.375 94.0425 254.936 93.4881 255.342 92.7841C255.749 92.0697 255.951 91.2745 255.951 90.4001C255.951 89.5257 255.749 88.7361 255.342 88.0321C254.936 87.3177 254.375 86.7625 253.66 86.3681C252.944 85.9625 252.143 85.7601 251.256 85.7601C250.369 85.7601 249.563 85.9625 248.837 86.3681C248.121 86.7625 247.555 87.3177 247.138 88.0321C246.732 88.7361 246.529 89.5257 246.529 90.4001C246.529 91.2745 246.732 92.0697 247.138 92.7841C247.555 93.4881 248.121 94.0425 248.837 94.4481C249.563 94.8425 250.369 95.0401 251.256 95.0401Z" fill="white"/>
<path d="M105.759 31.9572V47.2119L110.734 52.2396L115.708 57.2673L116.339 56.6174L116.982 55.9798L112.214 51.1605L107.458 46.3535V34.1154C107.458 27.3954 107.494 21.8895 107.555 21.9018C107.603 21.9018 111.17 26.3899 115.49 31.8836L123.351 41.8654V54.5327V67.2001L135.775 54.5695L148.211 41.939V33.9314L148.223 25.9362H147.374H146.524V33.5022L146.512 41.0806L135.787 51.9944L125.062 62.9082L125.05 52.3868V41.8777L135.435 30.4366C141.162 24.1581 145.966 18.8606 146.136 18.6644L146.451 18.3334H131.383H116.314V19.1918V20.0501L129.369 20.0746L142.436 20.1114L133.361 30.081L124.285 40.0628L124.018 39.7685C123.861 39.6214 119.748 34.4097 114.858 28.2048C109.969 21.9999 105.929 16.8741 105.868 16.8005C105.808 16.7392 105.759 23.2506 105.759 31.9572Z" fill="#FB1B3D"/>
</svg>
